<svg width="24" height="25" viewBox="0 0 24 25" fill="none" xmlns="http://www.w3.org/2000/svg">
<path d="M14.8876 12.8002C16.4544 11.8292 17.5032 10.0989 17.5032 8.12452C17.5032 5.09021 15.0345 2.62122 11.9994 2.62122C8.96513 2.62122 6.4966 5.08993 6.4966 8.12452C6.4966 10.0989 7.54541 11.8292 9.11162 12.8002C5.34193 14.0217 2.60742 17.5649 2.60742 21.7363C2.60742 22.0909 2.8947 22.3782 3.24931 22.3782H20.7505C21.1051 22.3782 21.3924 22.0909 21.3924 21.7363C21.3924 17.5649 18.6579 14.0217 14.8877 12.8002H14.8876ZM10.4938 21.0944L11.5637 15.9593H12.4904L13.7742 21.0944H10.4938ZM12.5848 15.189H11.477L10.6713 13.7388C11.104 13.6672 11.5469 13.6276 11.9995 13.6276C12.5223 13.6276 13.0333 13.6779 13.5288 13.7727L12.5848 15.189ZM7.7802 8.12406C7.7802 5.79739 9.67291 3.9045 11.9994 3.9045C14.3264 3.9045 16.2192 5.79721 16.2192 8.12406C16.2192 10.4507 14.3264 12.3436 11.9994 12.3436C9.67309 12.3436 7.7802 10.4507 7.7802 8.12406ZM9.88515 13.9093L10.844 15.6358L9.70656 21.0942H3.91624C4.18811 17.6392 6.63552 14.7881 9.88492 13.9092L9.88515 13.9093ZM19.2352 21.0939L17.371 19.2301C17.2958 19.1549 17.1738 19.1549 17.0986 19.2301C17.0234 19.3053 17.0234 19.4273 17.0986 19.5025L18.6902 21.0938H17.4525L16.9313 20.5726C16.8561 20.4974 16.7341 20.4974 16.6589 20.5726C16.5837 20.6478 16.5837 20.7698 16.6589 20.845L16.908 21.0942H14.5679L13.2059 15.6459L14.3245 13.9677C17.1213 14.8066 19.2872 17.1173 19.9191 19.996L18.3115 18.3887C18.2363 18.3135 18.1143 18.3135 18.0391 18.3887C17.9639 18.4639 17.9639 18.5859 18.0391 18.6611L20.0353 20.6572C20.0547 20.8017 20.0713 20.9473 20.0828 21.0942L19.2351 21.0944L19.2352 21.0939Z" fill="#00A7D7"/>
<path d="M11.6736 5.20669C10.9235 5.28979 10.2422 5.65443 9.75438 6.2333C9.61755 6.3961 9.63833 6.63896 9.80077 6.77616C9.87313 6.83669 9.96124 6.86678 10.0488 6.86678C10.1588 6.86678 10.2675 6.82004 10.3436 6.72995C10.7031 6.30298 11.2056 6.03396 11.7583 5.9727C11.9698 5.94906 12.1221 5.75886 12.0988 5.54752C12.0751 5.33547 11.8808 5.18484 11.6736 5.2067V5.20669Z" fill="#00A7D7"/>
<path d="M9.50856 7.45648C9.29723 7.4298 9.10702 7.5849 9.08321 7.79623C9.07085 7.90513 9.06476 8.01545 9.06476 8.1247C9.06476 8.33729 9.23723 8.50977 9.44982 8.50977C9.66241 8.50977 9.83488 8.33729 9.83488 8.1247C9.83488 8.04285 9.83972 7.96172 9.84849 7.88202C9.87214 7.67051 9.7199 7.48013 9.50856 7.45649L9.50856 7.45648Z" fill="#00A7D7"/>
</svg>
