<svg width="30" height="30" viewBox="0 0 30 30" fill="none" xmlns="http://www.w3.org/2000/svg">
<path fill-rule="evenodd" clip-rule="evenodd" d="M23.25 20.25H6.75V17.25C6.75 16.422 6.078 15.75 5.25 15.75C4.422 15.75 3.75 16.422 3.75 17.25V20.25C3.75 21.9067 5.09331 23.25 6.75 23.25H23.25C24.9067 23.25 26.25 21.9067 26.25 20.25V17.25C26.25 16.422 25.578 15.75 24.75 15.75C23.922 15.75 23.25 16.422 23.25 17.25V20.25ZM13.5 13.2579L10.8787 10.2624C10.3334 9.63909 9.38554 9.57613 8.76227 10.1214C8.139 10.6667 8.07604 11.6145 8.62131 12.2378L12.7425 16.9478C13.3118 17.5987 14.1353 17.9722 15 17.9722C15.8647 17.9722 16.6882 17.5987 17.2575 16.9478L21.3787 12.2378C21.924 11.6145 21.861 10.6667 21.2377 10.1214C20.6145 9.57612 19.6666 9.63908 19.1213 10.2624L16.5 13.2579V2.25C16.5 1.422 15.828 0.75 15 0.75C14.172 0.75 13.5 1.422 13.5 2.25L13.5 13.2579Z" fill="#00A7D7"/>
</svg>
