<svg width="32" height="32" viewBox="0 0 32 32" fill="none" xmlns="http://www.w3.org/2000/svg">
<path d="M28.3469 19.7407C29.7571 18.7837 28.688 16.7931 28.856 15.536C29.3955 14.5178 31.045 13.7542 30.9991 12.3748C31.045 10.9953 29.3955 10.2112 28.856 9.21357V9.21312C28.803 8.77859 28.8342 8.33794 28.9476 7.91504C29.5075 5.75149 28.6065 4.53998 26.4023 4.4025C25.2264 4.29569 24.926 4.09207 24.4728 3.02303C23.6533 0.986777 22.2534 0.447287 20.3597 1.65356C19.9854 1.90059 19.5672 2.07354 19.1277 2.16263C18.0027 1.99968 16.7401 0.635437 15.4574 1.09359C14.1745 1.55175 13.9047 3.27756 13.1107 4.09706C12.0926 4.60613 10.2855 4.26001 9.54728 5.39514C8.80911 6.53033 9.60842 8.09318 9.42002 9.21312C9.21571 9.57514 8.94459 9.89468 8.62076 10.1549C6.85952 11.6262 6.85952 13.128 8.62076 14.599C9.83227 15.5358 9.41478 16.1262 9.23163 17.465V17.4652C7.58081 17.0255 5.87979 16.803 4.17143 16.8034C3.36193 16.9714 1.02025 16.2944 1 17.567V27.4731C1.00795 27.8792 1.33225 28.2081 1.73817 28.2215C3.69192 28.2196 5.62409 28.6289 7.40925 29.4227C9.65733 30.4154 12.0792 30.9552 14.5361 31.0111C16.1315 31.0256 17.7132 30.7138 19.1838 30.0947L29.2278 25.3809C30.02 25.0198 30.6131 24.3285 30.85 23.4908C31.0868 22.653 30.9432 21.7535 30.4571 21.0312C29.9712 20.3088 29.1919 19.837 28.3267 19.7406L28.3469 19.7407ZM10.8503 15.0573C10.611 14.0392 9.02267 13.2502 8.78362 12.3745C8.78362 12.0843 9.26223 11.6262 9.64902 11.2596C10.1704 10.8398 10.5826 10.3003 10.8503 9.68674C11.0019 9.01472 10.988 8.31593 10.8096 7.65049C10.5246 6.20463 10.5958 6.1233 12.0773 5.92991L12.077 5.92968C12.7629 5.88764 13.4277 5.67606 14.0115 5.31381C14.5244 4.86542 14.9178 4.29702 15.1569 3.65932C15.381 3.18594 15.666 2.60053 15.9255 2.5139C16.8468 2.5139 18.0686 3.74066 19.1276 3.65432C20.1814 3.74091 21.4031 2.53438 22.3244 2.5139C22.6097 2.62071 22.8692 3.20611 23.1187 3.67974C23.3551 4.3065 23.7391 4.86717 24.2386 5.31375C24.8239 5.67123 25.4885 5.87758 26.1731 5.91438C26.6821 5.98575 27.3337 6.0721 27.4966 6.29118C27.6596 6.51003 27.5271 7.16159 27.4407 7.64023C27.2196 8.28816 27.2132 8.98991 27.4223 9.64192C27.6314 10.2937 28.0448 10.8609 28.6014 11.2596C29.7163 12.2777 29.7111 12.4916 28.6014 13.4892C28.0453 13.8871 27.6319 14.4535 27.4228 15.1044C27.2139 15.7554 27.2201 16.4566 27.4407 17.1036C27.5323 17.6126 27.6494 18.244 27.4967 18.4576C27.3439 18.6714 26.6974 18.758 26.1781 18.8291C24.3557 18.885 23.526 19.8982 22.8794 21.4813L21.3879 22.0462V22.0467C21.4595 21.3119 21.2129 20.582 20.7109 20.0408C20.2089 19.4997 19.4991 19.1995 18.7612 19.2161C16.1461 19.34 13.5326 18.9402 11.0746 18.0403C10.9474 17.9894 10.8201 17.9487 10.6928 17.9028C10.764 17.0221 11.151 15.9633 10.8506 15.0573L10.8503 15.0573ZM28.6064 23.9965L18.5374 28.7307C14.8824 30.2986 10.7846 29.2398 8.00478 28.0537C6.2685 27.2749 4.40248 26.826 2.5019 26.7302V18.3303H4.15638C6.33308 18.3297 8.49203 18.7212 10.5298 19.4859C13.1659 20.4495 15.968 20.877 18.7714 20.7431C19.1494 20.7688 19.488 20.9854 19.6698 21.3174C19.8516 21.6494 19.8516 22.0514 19.6698 22.3835C19.488 22.7155 19.1493 22.9321 18.7714 22.9575H14.6989C14.2774 22.9575 13.9353 23.2996 13.9353 23.7211C13.9353 24.1429 14.2774 24.4847 14.6989 24.4847H18.7969C19.191 24.4788 19.5794 24.3904 19.9373 24.2252L27.5273 21.354C27.9966 21.1756 28.5252 21.2571 28.9188 21.5689C29.3127 21.8805 29.5131 22.3764 29.447 22.8741C29.3808 23.3718 29.0579 23.7979 28.5963 23.9961L28.6064 23.9965Z" fill="#00A7D7" stroke="#00A7D7" stroke-width="0.5"/>
<path d="M16.308 11.4632C17.3975 11.4632 18.2475 10.3432 18.2475 8.91787C18.2475 7.4925 17.3973 6.37256 16.308 6.37256C15.2185 6.37256 14.3686 7.4925 14.3686 8.91787C14.3684 10.3432 15.2185 11.4632 16.308 11.4632ZM16.308 7.89975C16.4098 7.89975 16.7203 8.26109 16.7203 8.91787C16.7203 9.57465 16.4098 9.936 16.308 9.936C16.2062 9.936 15.8958 9.57466 15.8958 8.91787C15.8956 8.26133 16.2062 7.89474 16.308 7.89474V7.89975Z" fill="#00A7D7" stroke="#00A7D7" stroke-width="0.5"/>
<path d="M14.7808 16.7165C15.0806 17.0149 15.5653 17.0149 15.8651 16.7165L23.4708 9.10616C23.6149 8.96366 23.6962 8.76935 23.6962 8.56664C23.6962 8.3637 23.6149 8.16939 23.4708 8.0269C23.1715 7.73192 22.6909 7.73192 22.3915 8.0269L14.7812 15.6628C14.5026 15.959 14.5026 16.4207 14.7812 16.7166L14.7808 16.7165Z" fill="#00A7D7" stroke="#00A7D7" stroke-width="0.5"/>
<path d="M21.8618 13.2852C20.7723 13.2852 19.9223 14.4051 19.9223 15.8305C19.9223 17.2558 20.7725 18.3758 21.8618 18.3758C22.9513 18.3758 23.8012 17.2558 23.8012 15.8305C23.8014 14.4051 22.9513 13.2852 21.8618 13.2852ZM21.8618 16.8486C21.7599 16.8486 21.4495 16.4873 21.4495 15.8305C21.4495 15.1737 21.7599 14.8123 21.8618 14.8123C21.9636 14.8123 22.274 15.1789 22.274 15.8305C22.2742 16.4822 21.9636 16.8588 21.8618 16.8588V16.8486Z" fill="#00A7D7" stroke="#00A7D7" stroke-width="0.5"/>
</svg>
