<svg width="41" height="30" viewBox="0 0 41 30" fill="none" xmlns="http://www.w3.org/2000/svg">
<path d="M40.9513 18.1113L37.9659 5.54231C37.8944 5.24072 37.6431 5.01687 37.3356 4.97661C37.0282 4.93844 36.7273 5.09218 36.5805 5.36531C36.577 5.37225 36.2979 5.87617 35.6326 6.57441L34.7976 3.05844C34.7261 2.7565 34.4738 2.53265 34.1657 2.49274C33.8602 2.45144 33.5573 2.60969 33.4108 2.88317C33.4073 2.89011 33.1297 3.39507 32.465 4.09369L31.6294 0.57425C31.5572 0.270922 31.3038 0.0439482 30.9939 0.00612659C30.6819 -0.034132 30.3834 0.126904 30.2401 0.4042C30.2103 0.461811 27.1409 6.14274 15.6339 6.14274C3.25058 6.14274 0.223609 11.1334 0.100114 11.3461C0.00502259 11.5113 -0.0237808 11.7063 0.0199454 11.892L3.00534 24.461C3.07613 24.7584 3.32081 24.9822 3.62343 25.027C3.65988 25.0319 3.69597 25.035 3.73207 25.035C3.99583 25.035 4.24362 24.8951 4.37793 24.6619C4.38591 24.648 4.65661 24.2038 5.37949 23.6007L6.17389 26.9455C6.24469 27.2429 6.48936 27.4668 6.79199 27.5116C6.82843 27.5164 6.86452 27.5195 6.90062 27.5195C7.16439 27.5195 7.41218 27.3797 7.54648 27.1465C7.55447 27.1326 7.82517 26.6884 8.54804 26.0852L9.3421 29.4298C9.4122 29.7244 9.65514 29.9441 9.95464 29.991C9.99282 29.9969 10.0306 30 10.0685 30C10.3277 30 10.5734 29.8633 10.7102 29.6373C10.7369 29.5926 13.5456 25.1728 24.9548 25.1728C37.3621 25.1728 40.7489 18.8943 40.8875 18.6274C40.9697 18.4681 40.9919 18.2849 40.9506 18.1113L40.9513 18.1113ZM6.39034 21.1623C6.26436 21.2296 6.14567 21.2973 6.02871 21.3642C5.96346 21.4017 5.89579 21.4389 5.83367 21.4763C5.69727 21.5579 5.56609 21.6391 5.44254 21.7193C5.43942 21.7214 5.43803 21.7241 5.43491 21.7262C5.42831 21.7307 5.42033 21.7352 5.41408 21.7397C5.41165 21.7411 5.40922 21.7429 5.40645 21.7443C4.87997 22.0889 4.45722 22.4234 4.12725 22.7223L1.55215 11.8796C2.2879 10.9824 5.70222 7.63371 15.6342 7.63371C24.5445 7.63371 28.8029 4.39538 30.546 2.47134L31.3088 5.68293V5.68397L33.0916 13.1904C32.3961 14.2392 28.8288 18.7106 18.6187 18.7106C18.1196 18.7106 17.6396 18.7207 17.1708 18.7366C17.0101 18.7422 16.8563 18.7505 16.6991 18.7575C16.3986 18.771 16.1025 18.7863 15.8145 18.806C15.6333 18.8185 15.4556 18.8321 15.2797 18.8463C15.0284 18.8671 14.7837 18.8907 14.5422 18.9154C14.3631 18.9338 14.1826 18.9522 14.0084 18.973C13.778 19.0007 13.5572 19.0323 13.3362 19.0636C13.0367 19.1062 12.7455 19.1521 12.4626 19.201C12.2652 19.2353 12.0653 19.2687 11.8754 19.3055C11.6755 19.3447 11.4857 19.387 11.2945 19.4293C11.1595 19.4592 11.0237 19.488 10.8929 19.5189C10.7027 19.564 10.5181 19.6105 10.3366 19.6581C10.2186 19.6889 10.1027 19.7209 9.98815 19.7525C9.80838 19.8028 9.63034 19.8534 9.45924 19.9059C9.36033 19.9361 9.26628 19.968 9.1698 19.9996C8.7981 20.12 8.44445 20.2442 8.11333 20.3737C8.07863 20.3872 8.0408 20.4001 8.00679 20.4139C7.86832 20.4691 7.73852 20.525 7.60733 20.5812C7.50738 20.6239 7.40674 20.6662 7.31095 20.7096C7.19538 20.762 7.08363 20.8141 6.97396 20.8668C6.86846 20.9175 6.76608 20.9678 6.66613 21.0185C6.57312 21.0671 6.47906 21.1143 6.39022 21.1622L6.39034 21.1623ZM8.58651 24.2201C8.5827 24.2233 8.57749 24.225 8.57367 24.2281C8.04719 24.5724 7.6248 24.9073 7.2951 25.2061L6.69921 22.697C8.22726 21.804 10.6525 20.8552 14.3712 20.431C14.3972 20.4279 14.4229 20.4251 14.4489 20.422C14.7137 20.3925 14.9872 20.3668 15.2649 20.3429C15.3211 20.338 15.3763 20.3325 15.4332 20.328C15.689 20.3071 15.9527 20.2901 16.2193 20.2742C16.2974 20.2697 16.3734 20.2638 16.4525 20.2596C16.7121 20.2457 16.9807 20.2363 17.2511 20.2277C17.3402 20.2245 17.4253 20.22 17.5152 20.2183C17.874 20.2089 18.2405 20.2037 18.6181 20.2037C31.0254 20.2037 34.4122 13.9259 34.5508 13.6586C34.633 13.5 34.6552 13.3168 34.6139 13.1433L32.8655 5.78223C32.8724 5.77633 32.8773 5.77078 32.8842 5.76488C33.0244 5.6389 33.1535 5.51674 33.2764 5.39666C33.3083 5.36543 33.3395 5.33454 33.3704 5.30365C33.4919 5.18183 33.6078 5.06175 33.7112 4.94792L36.2586 15.6716C35.5492 16.7204 31.9256 21.1964 21.7866 21.1964C14.7785 21.1953 10.7715 22.7935 8.58676 24.2199L8.58651 24.2201ZM24.9554 23.6798C16.2402 23.6798 12.159 26.1522 10.4638 27.6904L9.86585 25.1714C11.9058 23.9789 15.5505 22.6876 21.788 22.6876C34.1953 22.6876 37.5821 16.409 37.7207 16.1421C37.803 15.9835 37.8252 15.8003 37.7839 15.6267L36.0344 8.26127C36.3648 7.96731 36.6452 7.68516 36.8802 7.4273L39.4286 18.1554C38.7186 19.2042 35.095 23.6802 24.9557 23.6802L24.9554 23.6798Z" fill="#00A7D7"/>
<path d="M7.70882 17.6475C7.97258 17.5767 8.12077 17.3456 8.03609 17.0304L7.71958 15.8505L9.18029 15.459L10.1898 16.4536C10.464 16.7271 10.6962 16.8472 10.995 16.7677C11.3355 16.6768 11.4955 16.387 11.3952 16.0125L11.1085 14.9429L12.3634 14.6066C12.6574 14.5278 12.8319 14.2256 12.7532 13.9316C12.6744 13.6376 12.3721 13.4631 12.0781 13.5419L10.8232 13.8782L10.7167 13.4815L11.9716 13.1452C12.2656 13.0664 12.4401 12.7641 12.3613 12.4702C12.2826 12.1762 11.9803 12.0016 11.6863 12.0804L10.4314 12.4167L10.1149 11.2361C10.0302 10.9213 9.78655 10.7953 9.52279 10.8654C9.24966 10.9386 9.10181 11.1694 9.18649 11.4842L9.503 12.6649L8.0454 13.0553L7.033 12.0613C6.75883 11.7882 6.52562 11.6681 6.23652 11.7458C5.88738 11.8395 5.72739 12.1283 5.82803 12.5031L6.1147 13.5727L4.85976 13.909C4.56581 13.9878 4.39124 14.2901 4.47002 14.584C4.5488 14.878 4.85109 15.0525 5.14504 14.9737L6.39999 14.6375L6.50653 15.0341L5.25159 15.3704C4.95763 15.4492 4.78307 15.7515 4.86185 16.0455C4.94063 16.3394 5.24292 16.514 5.53687 16.4352L6.79182 16.0989L7.10833 17.2788C7.19231 17.5943 7.43595 17.7207 7.70873 17.6474L7.70882 17.6475ZM9.78834 13.7299L9.89488 14.1266L9.2983 14.2863L8.95854 13.9524L9.78834 13.7299ZM7.93058 14.2276L8.26999 14.5615L7.43464 14.7853L7.3281 14.3886L7.93058 14.2276Z" fill="#00A7D7"/>
</svg>
