<svg width="32" height="32" viewBox="0 0 32 32" fill="none" xmlns="http://www.w3.org/2000/svg">
<g clip-path="url(#clip0_1_701)">
<path d="M15.2321 27.9227C16.16 28.8506 17.6961 28.8506 18.624 27.9227L25.216 21.3307C26.1439 20.4028 26.1439 18.8667 25.216 17.9388L16.576 9.17076C16.3519 8.94666 16.032 8.81875 15.712 8.81875H13.664C12.8001 6.3547 11.0722 4.49864 8.32018 3.47475C7.68024 3.31471 7.0403 3.69886 6.84807 4.33881C6.72017 4.88278 6.97597 5.45892 7.48801 5.7147C9.2159 6.35464 10.3679 7.37875 11.04 8.75464H7.29601C6.6239 8.75464 6.11207 9.29861 6.07996 9.93858V18.3546C6.07996 18.6747 6.20786 18.9945 6.43197 19.2186L15.2321 27.9227ZM8.51207 11.1867H11.7761C11.8721 11.8267 11.904 12.4988 11.8402 13.1387C10.5922 13.6186 9.98419 14.9947 10.4643 16.2427C10.9442 17.4907 12.3203 18.0987 13.5683 17.6186C14.8163 17.1387 15.4243 15.7626 14.9442 14.5146C14.7841 14.1307 14.5281 13.7787 14.2082 13.5227C14.2723 12.7546 14.2402 11.9546 14.1763 11.1867H15.1042L23.4882 19.5707L16.8962 26.1947L8.51221 17.8747L8.51207 11.1867Z" fill="#00A7D7"/>
</g>
<defs>
<clipPath id="clip0_1_701">
<rect width="32" height="32" fill="white"/>
</clipPath>
</defs>
</svg>
