<svg width="43" height="42" viewBox="0 0 43 42" fill="none" xmlns="http://www.w3.org/2000/svg">
<path d="M1 40.4736C1 40.6132 1.05542 40.7469 1.15377 40.8457C1.2525 40.9445 1.38646 41 1.52591 41H6.78731C6.92678 41 7.06074 40.9445 7.15945 40.8457C7.25818 40.7469 7.3136 40.6132 7.3136 40.4736V37.3136H12.8414C13.2382 37.3136 13.6334 37.2662 14.0188 37.1725L29.9007 33.3146C29.9356 33.3061 29.9693 33.294 30.0016 33.2789L40.3976 28.3594C41.2608 27.9509 41.8568 27.1302 41.9775 26.1817C42.0983 25.2336 41.7276 24.2891 40.9943 23.6767C40.261 23.0643 39.2664 22.8685 38.3563 23.1576L28.5625 26.2655L25.8966 26.6361V26.6358C26.2772 26.0293 26.4229 25.3045 26.3065 24.5977C26.1898 23.8909 25.8195 23.2513 25.2646 22.7991C24.7097 22.3468 24.0091 22.1132 23.2937 22.1423L15.3789 22.4596H15.3793C13.505 22.5302 11.7349 23.3413 10.4573 24.7155L7.31429 28.0797V27.834C7.31429 27.6944 7.25887 27.5603 7.16015 27.4615C7.06142 27.363 6.92746 27.3076 6.78801 27.3076H1.52661C1.23594 27.3076 1.00069 27.543 1.00069 27.834C1.00069 28.1249 1.23594 28.3608 1.52661 28.3608H6.26168L6.26205 39.9469H1.5266C1.23593 39.9469 1.00068 40.1827 1.00068 40.4737L1 40.4736ZM11.225 25.4352C12.3143 24.2637 13.823 23.572 15.4206 23.5121L23.3354 23.1947L23.335 23.1944C23.9835 23.1683 24.5997 23.4783 24.9656 24.0147C25.3319 24.5506 25.3965 25.238 25.1366 25.8331C24.8764 26.4282 24.3288 26.8477 23.6869 26.9429L17.2375 27.8392C16.9501 27.8796 16.7497 28.1456 16.7897 28.4332C16.8297 28.7209 17.0947 28.9218 17.3824 28.8825L23.8146 27.9887L23.8355 27.9858L28.7504 27.3029V27.3025C28.7798 27.2985 28.8084 27.2919 28.8367 27.2827L38.6736 24.1616C39.2417 23.9812 39.8623 24.1032 40.3197 24.4852C40.7773 24.8673 41.0085 25.4565 40.9333 26.0483C40.8577 26.6397 40.4863 27.1522 39.9475 27.4071L29.6004 32.3036L13.7711 36.1491C13.4669 36.2229 13.1549 36.2604 12.8419 36.2604H7.31402V29.6219L11.225 25.4352ZM3.63051 38.367C3.33984 38.367 3.10422 38.1312 3.10422 37.8406V35.7339C3.10422 35.4429 3.33984 35.2074 3.63051 35.2074C3.92081 35.2074 4.15644 35.4429 4.15644 35.7339V37.8406C4.15644 37.9802 4.10102 38.1139 4.0023 38.2127C3.90357 38.3116 3.76998 38.367 3.63052 38.367L3.63051 38.367ZM26.7018 4.69592L23.4464 4.2224L21.9905 1.26964C21.8918 1.1025 21.7124 1 21.5186 1C21.3248 1 21.1453 1.10249 21.0466 1.26964L19.5911 4.22212L16.3354 4.69564V4.69601C16.1372 4.72466 15.9724 4.86389 15.9108 5.05455C15.8488 5.2452 15.9005 5.4546 16.044 5.59456L18.3994 7.89278L17.843 11.1384L17.8434 11.138C17.8096 11.3357 17.8908 11.5355 18.053 11.6531C18.2148 11.771 18.4295 11.7864 18.6068 11.6935L21.5186 10.1612L24.4304 11.6935C24.6077 11.7864 24.8224 11.771 24.9846 11.6531C25.1464 11.5355 25.2279 11.3357 25.1938 11.138L24.6374 7.89241L26.9932 5.59419L26.9935 5.59456C27.137 5.4546 27.1884 5.24521 27.1268 5.05455C27.0647 4.86389 26.9 4.72466 26.7018 4.69601L26.7018 4.69592ZM23.7051 7.33129C23.5814 7.45252 23.5249 7.62664 23.5539 7.79746L23.9763 10.2639L21.7632 9.09938C21.6102 9.01893 21.4271 9.01893 21.2737 9.09938L19.0606 10.2639L19.4834 7.79746H19.4837C19.5127 7.62664 19.4558 7.45251 19.3322 7.33129L17.5419 5.58491L20.0162 5.2249C20.1876 5.19992 20.3355 5.09192 20.4122 4.93653L21.5184 2.69276L22.6252 4.93653C22.7016 5.09192 22.8498 5.19993 23.0212 5.2249L25.4956 5.58491L23.7051 7.33129ZM18.3619 12.562C18.5017 12.562 18.6353 12.6175 18.734 12.7163C18.8327 12.8152 18.8882 12.9489 18.8882 13.0885V16.7752C18.8882 17.0658 18.6525 17.3016 18.3619 17.3016C18.0716 17.3016 17.8359 17.0658 17.8359 16.7752V13.0885C17.8359 12.7979 18.0716 12.562 18.3619 12.562L18.3619 12.562ZM21.5189 11.5089C21.6584 11.5089 21.7923 11.5643 21.891 11.6628C21.9898 11.7616 22.0452 11.8957 22.0452 12.0353V14.142C22.0452 14.4326 21.8096 14.6684 21.5189 14.6684C21.2282 14.6684 20.9926 14.4326 20.9926 14.142V12.0353C20.9926 11.7443 21.2282 11.5088 21.5189 11.5088L21.5189 11.5089ZM25.2018 13.6152V18.8816C25.2018 19.1726 24.9662 19.4084 24.6759 19.4084C24.3852 19.4084 24.1496 19.1726 24.1496 18.8816V13.6152C24.1496 13.3243 24.3852 13.0884 24.6759 13.0884C24.9662 13.0884 25.2018 13.3243 25.2018 13.6152ZM26.7803 7.29564C26.9198 7.29564 27.0537 7.35111 27.1524 7.44993C27.2512 7.54875 27.3066 7.68247 27.3066 7.82206V16.2485C27.3066 16.5394 27.071 16.7753 26.7803 16.7753C26.4896 16.7753 26.254 16.5394 26.254 16.2485V7.82206C26.254 7.53148 26.4896 7.29563 26.7803 7.29563L26.7803 7.29564ZM15.7314 7.82207C15.7314 7.53149 15.967 7.29564 16.2576 7.29564C16.5483 7.29564 16.7839 7.53148 16.7839 7.82207V14.142C16.7839 14.4326 16.5483 14.6685 16.2576 14.6685C15.967 14.6685 15.7314 14.4326 15.7314 14.142V7.82207Z" fill="#00A7D7" stroke="#00A7D7" stroke-width="0.3"/>
</svg>
