<svg width="32" height="30" viewBox="0 0 32 30" fill="none" xmlns="http://www.w3.org/2000/svg">
<path d="M9.70146 2.39844C9.48806 2.39755 9.28293 2.48215 9.13226 2.63327C8.98137 2.78438 8.89722 2.98952 8.89833 3.20314V4.06405H7.70456C6.33199 4.06405 5.20142 5.19617 5.20142 6.56874V27.095C5.20142 28.4676 6.33199 29.5997 7.70456 29.5997H18.8606C19.3001 29.5979 19.6559 29.2421 19.6574 28.8029C19.6583 28.5906 19.5748 28.3868 19.4255 28.2361C19.2759 28.0854 19.0728 28.0004 18.8605 27.9997H7.70454C7.1907 27.9997 6.8014 27.6087 6.8014 27.095V6.56875C6.8014 6.05491 7.19068 5.66561 7.70454 5.66561H8.89831V6.52653C8.89764 6.7397 8.98202 6.94438 9.13269 7.09527C9.28358 7.24594 9.48827 7.33032 9.70144 7.32965C9.91371 7.32876 10.1168 7.24371 10.2664 7.09305C10.4157 6.94238 10.4992 6.73858 10.4983 6.52653V5.66561H14.8624V6.52653C14.8617 6.7397 14.9461 6.94438 15.0967 7.09527C15.2476 7.24617 15.4523 7.33032 15.6655 7.32965C15.8778 7.32876 16.0809 7.24371 16.2304 7.09305C16.3798 6.94238 16.4633 6.73858 16.4624 6.52653V5.66561H20.8327V6.52653C20.832 6.7388 20.9157 6.94305 21.0655 7.09349C21.2152 7.24416 21.4188 7.32921 21.6311 7.32965C21.8445 7.33032 22.0492 7.24617 22.2001 7.09527C22.3507 6.94438 22.4351 6.73969 22.4342 6.52653V5.66561H23.6264C24.1402 5.66561 24.5295 6.05512 24.5295 6.56875V22.3299C24.5304 22.7705 24.8873 23.1274 25.328 23.1284C25.5405 23.129 25.7445 23.0453 25.8952 22.8955C26.0458 22.7458 26.1309 22.5422 26.1311 22.3299V6.56878C26.1311 5.19621 24.999 4.06409 23.6264 4.06409H22.4343V3.20318C22.4356 2.98956 22.3514 2.78443 22.2006 2.63331C22.0497 2.48219 21.8447 2.39759 21.6311 2.39848C21.4184 2.39871 21.2146 2.48398 21.0648 2.63487C20.9151 2.78598 20.8316 2.99045 20.8327 3.20317V4.06408H16.4624V3.20317C16.4637 2.99067 16.3805 2.78643 16.2309 2.63554C16.0814 2.48442 15.878 2.39915 15.6655 2.39848C15.4521 2.39759 15.247 2.48219 15.0963 2.63331C14.9454 2.78442 14.8613 2.98956 14.8624 3.20318V4.06409H10.4984V3.20318C10.4997 2.99067 10.4164 2.78643 10.2669 2.63554C10.1173 2.48443 9.91398 2.39916 9.70148 2.39849L9.70146 2.39844ZM10.0561 10.1704C9.84387 10.1707 9.6403 10.2557 9.49052 10.4064C9.34074 10.5571 9.25704 10.7611 9.25771 10.9736C9.2586 11.4142 9.61574 11.7711 10.0562 11.772H21.2767C21.7169 11.7702 22.073 11.4135 22.0736 10.9736C22.0745 10.7613 21.991 10.5575 21.8417 10.4068C21.6921 10.2562 21.489 10.1711 21.2767 10.1704H10.0561ZM10.0561 14.7955C9.61619 14.7961 9.25951 15.1522 9.25768 15.5923C9.25701 15.8046 9.34072 16.0089 9.4905 16.1593C9.64027 16.31 9.84384 16.395 10.0561 16.3955H21.2767C21.489 16.3946 21.6921 16.3095 21.8416 16.1589C21.991 16.0082 22.0745 15.8044 22.0736 15.5923C22.072 15.1528 21.7162 14.797 21.2767 14.7955H10.0561ZM10.0561 19.4189C9.61619 19.4196 9.25951 19.7756 9.25768 20.2158C9.25701 20.428 9.34072 20.6323 9.4905 20.7827C9.64027 20.9334 9.84384 21.0184 10.0561 21.0189H13.2749C13.4871 21.018 13.6903 20.9329 13.8398 20.7823C13.9891 20.6316 14.0726 20.4278 14.0717 20.2158C14.0702 19.7763 13.7144 19.4204 13.2749 19.4189H10.0561ZM16.9093 19.6048C16.6796 19.6118 16.4642 19.7173 16.3176 19.8944C16.1711 20.0714 16.1077 20.3028 16.1437 20.5298L16.4984 22.8205C16.5245 22.9885 16.6033 23.1439 16.7234 23.2642L22.4748 29.0156C23.3011 29.842 24.661 29.7701 25.481 28.95C26.3011 28.1299 26.3714 26.7701 25.5451 25.9438L19.7937 20.1924C19.6718 20.0718 19.5146 19.9935 19.3452 19.9689L17.0593 19.6142C17.0095 19.6064 16.9593 19.6033 16.9093 19.6049L16.9093 19.6048ZM17.8921 21.3627L18.8436 21.5095L24.4124 27.0783C24.5883 27.2542 24.6005 27.5633 24.3467 27.8174C24.0929 28.0712 23.7789 28.0573 23.603 27.8814L18.0345 22.3127L17.8921 21.3627Z" fill="#00A7D7" stroke="#00A7D7" stroke-width="0.5"/>
</svg>
