<svg width="32" height="33" viewBox="0 0 32 33" fill="none" xmlns="http://www.w3.org/2000/svg">
<g clip-path="url(#clip0_1_778)">
<path d="M12.8187 23.1995C12.4026 22.4955 11.6667 21.5995 10.8986 20.7355C10.2586 19.9995 9.5865 19.2315 9.10661 18.5274C8.78652 18.0154 8.14656 18.0154 7.69856 18.2714C7.15458 18.5915 6.77067 19.3274 7.34654 20.4154C7.66664 21.0235 8.37066 21.7913 9.1066 22.6235C9.13852 22.6875 9.20258 22.7194 9.2345 22.7835C9.39455 22.9755 9.36241 23.2956 9.13852 23.4234C8.97848 23.5513 8.72245 23.4875 8.59455 23.3275L8.46665 23.1996C7.89076 22.5596 7.34653 21.9835 6.96265 21.4395C6.8026 21.2154 6.6747 21.0234 6.57872 20.7996C6.13073 19.9355 6.13073 19.1676 6.35461 18.5915C5.97068 17.7274 5.61866 16.9274 5.45861 16.3834C4.9787 14.8475 2.89855 15.2314 2.99455 16.8633C3.09053 18.4953 3.66666 23.9673 5.26666 25.8233C6.00261 26.6553 7.31466 27.8073 8.69078 28.7674C8.91489 28.9274 9.04279 29.1513 9.04279 29.4395V30.5596C9.04279 30.8797 9.29882 31.1676 9.65085 31.1676H13.5548C13.9069 31.1676 14.1629 30.8797 14.1629 30.5596C14.131 29.8875 14.0988 28.7995 14.0669 27.8076C13.9067 25.8556 13.2986 23.9676 12.8187 23.1995L12.8187 23.1995Z" fill="#00A7D7"/>
<path d="M25.8746 16.4155C25.7146 16.9276 25.3626 17.7595 24.9786 18.6236C25.2027 19.2316 25.2027 19.9676 24.7545 20.8316C24.6585 21.0236 24.5304 21.2477 24.3706 21.4716C23.9866 22.0156 23.4427 22.5917 22.8666 23.2316C22.8346 23.2636 22.8025 23.3276 22.7387 23.3595C22.6108 23.5196 22.3547 23.5515 22.1947 23.4555C21.9706 23.2955 21.9387 23.0075 22.0987 22.8156C22.1306 22.7515 22.1947 22.7196 22.2266 22.6555C22.9947 21.8236 23.6987 21.0555 23.9867 20.4475C24.5626 19.3274 24.1786 18.5915 23.6347 18.3035C23.1867 18.0475 22.5787 18.0475 22.2266 18.5595C21.7467 19.2955 21.0746 20.0316 20.4347 20.7676C19.6987 21.5995 18.9625 22.4955 18.5145 23.2316C18.0346 24.0316 17.4266 25.8876 17.3306 27.8716C17.2665 28.8316 17.2346 29.9515 17.2346 30.6236C17.2346 30.9756 17.4906 31.2316 17.8427 31.2316H21.7467C22.0668 31.2316 22.3547 30.9756 22.3547 30.6236V29.5035C22.3547 29.2474 22.4826 28.9914 22.7067 28.8313C24.0826 27.8713 25.3947 26.7193 26.1309 25.8873C27.7309 24.0313 28.3067 18.5593 28.3708 16.9273C28.4025 15.2635 26.3226 14.8793 25.8746 16.4155L25.8746 16.4155Z" fill="#00A7D7"/>
<path d="M24.1146 14.2076V4.03156C24.1146 3.74361 23.9226 3.45567 23.6347 3.39161L15.8907 0.831557C15.7628 0.799637 15.6028 0.799637 15.4746 0.831557L7.73064 3.39161C7.44269 3.4876 7.25073 3.74363 7.25073 4.03156V14.2076C7.25073 14.4955 7.4427 14.7834 7.73064 14.8475L15.4746 17.4076C15.5387 17.4395 15.6025 17.4395 15.6987 17.4395C15.7628 17.4395 15.8588 17.4395 15.9229 17.4076L23.6669 14.8475C23.9227 14.7837 24.1146 14.5276 24.1146 14.2078L24.1146 14.2076ZM15.6666 2.20756L21.2347 4.03167L15.6666 5.85556L13.9387 5.27967L15.1548 4.83168C15.5068 4.70378 15.6988 4.31963 15.5709 3.93568C15.443 3.58367 15.0588 3.39171 14.6749 3.51961L11.8266 4.60756L10.0987 4.03167L15.6666 2.20756ZM8.59462 4.9915L11.0906 5.82344V11.4875C11.0906 11.8714 11.4107 12.1596 11.7627 12.1596C12.1467 12.1596 12.4348 11.8395 12.4348 11.4875V6.27167L14.9308 7.10361V15.8396L8.56285 13.7597V4.99173L8.59462 4.9915ZM20.2426 14.5595V10.9753C20.2426 10.5914 19.9225 10.3032 19.5705 10.3032C19.1866 10.3032 18.8984 10.6233 18.8984 10.9753V15.0073L16.4024 15.8392L16.4026 7.07179L22.7706 4.9919V13.7279L20.2426 14.5595Z" fill="#00A7D7"/>
</g>
<defs>
<clipPath id="clip0_1_778">
<rect width="32" height="33" fill="white"/>
</clipPath>
</defs>
</svg>
