<svg width="30" height="25" viewBox="0 0 30 25" fill="none" xmlns="http://www.w3.org/2000/svg">
<path d="M25.3115 5.37293H19.6932C19.1542 3.28112 17.2611 1.73364 15.0007 1.73364C12.7392 1.73364 10.846 3.28134 10.3068 5.37293H4.68853C4.02175 5.37293 3.47552 5.91873 3.47552 6.58594V22.0532C3.47552 22.7204 4.02175 23.2662 4.68853 23.2662H25.3115C25.9789 23.2662 26.5245 22.7204 26.5245 22.0532V6.58594C26.5245 5.91894 25.9789 5.37293 25.3113 5.37293H25.3115ZM15.0005 3.25004C16.4114 3.25004 17.6151 4.13263 18.101 5.37293H11.8995C12.3861 4.13263 13.5898 3.25004 15.0007 3.25004H15.0005ZM25.0082 6.88933V7.95091H9.23771C8.9866 7.95091 8.78288 8.15463 8.78288 8.40574C8.78267 8.65685 8.9866 8.86079 9.23771 8.86079H25.0082V14.9264H18.0328V14.1682C18.0328 13.5009 17.4872 12.9552 16.8198 12.9552L13.1803 12.9549C12.5135 12.9549 11.9673 13.5007 11.9673 14.168V14.9264H4.99186V6.88948L25.0082 6.88933ZM17.123 14.168V16.5943C17.123 16.7587 16.9844 16.8977 16.8196 16.8977L13.1803 16.8975C13.0161 16.8975 12.8769 16.7585 12.8769 16.5941V14.1678C12.8769 14.0034 13.0161 13.8644 13.1803 13.8644H16.8196C16.9844 13.8647 17.123 14.0036 17.123 14.168ZM4.99181 15.8361H11.9672V16.5943C11.9672 17.2615 12.5134 17.8073 13.1802 17.8073H16.8195C17.4869 17.8073 18.0325 17.2615 18.0325 16.5943L18.0327 15.8361H25.0081V18.0367L24.5383 17.5666C24.4494 17.4777 24.3054 17.4777 24.2165 17.5666C24.1277 17.6554 24.1277 17.7995 24.2165 17.8884L25.0081 18.6795V20.1416L23.4272 18.5607C23.3384 18.4718 23.1943 18.4718 23.1055 18.5607C23.0166 18.6495 23.0166 18.7936 23.1055 18.8824L25.0082 20.7847V21.75H24.5104L22.9071 20.1462C22.8182 20.0574 22.6742 20.0574 22.5853 20.1462C22.4965 20.2351 22.4965 20.3792 22.5853 20.468L23.8673 21.7502H22.4055L21.8481 21.193C21.7592 21.1042 21.6152 21.1042 21.5263 21.193C21.4375 21.2819 21.4375 21.4259 21.5263 21.5148L21.762 21.75L4.99174 21.7502L4.99181 15.8361Z" fill="#363435"/>
<path d="M6.50818 8.86068H7.41807C7.66918 8.86068 7.8729 8.65696 7.8729 8.40585C7.8729 8.15453 7.66918 7.95081 7.41807 7.95081H6.50818C6.25707 7.95081 6.05334 8.15453 6.05334 8.40564C6.05334 8.65675 6.25707 8.86068 6.50818 8.86068Z" fill="#363435"/>
</svg>
