<svg width="36" height="32" viewBox="0 0 36 32" fill="none" xmlns="http://www.w3.org/2000/svg">
<g clip-path="url(#clip0_1_865)">
<path d="M23.9555 9.08489C23.9555 9.84872 24.5767 10.4699 25.3405 10.4699C26.1044 10.4699 26.7256 9.84872 26.7256 9.08489C26.7256 8.32107 26.1044 7.69987 25.3405 7.69987C24.5765 7.70009 23.9555 8.32107 23.9555 9.08489ZM25.7658 9.08489C25.7658 9.31905 25.5752 9.50989 25.3408 9.50989C25.1066 9.50989 24.9158 9.31927 24.9158 9.08489C24.9158 8.85074 25.1064 8.65989 25.3408 8.65989C25.5749 8.65989 25.7658 8.85029 25.7658 9.08489ZM30.4769 4.20501H29.8468V3.11775C29.8468 2.64029 29.458 2.25146 28.9805 2.25146H6.82567C6.34821 2.25146 5.95938 2.6403 5.95938 3.11775V4.20501H5.52255C4.61918 4.20501 3.88416 4.94004 3.88416 5.84364V23.5956C3.88416 24.499 4.61918 25.234 5.52255 25.234H11.0915C12.5282 27.5416 15.0868 29.0818 17.9995 29.0818C20.9122 29.0818 23.4712 27.5416 24.9075 25.234H30.4765C31.3799 25.234 32.1149 24.499 32.1149 23.5956V5.84364C32.1149 4.93964 31.3799 4.20501 30.4763 4.20501H30.4769ZM6.91978 3.21101H28.8872V4.20455H6.91978V3.21101ZM18.0004 28.1219C14.0454 28.1219 10.8278 24.9047 10.8278 20.9499C10.8278 20.6523 10.8463 20.3523 10.8829 20.0582C11.3267 16.4774 14.3865 13.7776 18.0001 13.7776C18.9249 13.7776 19.8251 13.951 20.6759 14.2928C23.4074 15.3918 25.1726 18.005 25.1726 20.9499C25.1726 24.9046 21.9549 28.1219 18 28.1219L18.0004 28.1219ZM31.1558 10.7527H25.3438C24.4241 10.7527 23.6759 10.0045 23.6759 9.08529C23.6759 8.16564 24.4241 7.41724 25.3438 7.41724H31.1558V10.7527ZM31.1558 6.45695H25.3438C23.8949 6.45695 22.7159 7.63621 22.7159 9.08507C22.7159 10.5338 23.8947 11.7125 25.3438 11.7125H31.1558V23.5959C31.1558 23.97 30.8515 24.2743 30.4774 24.2743H25.4196C25.8765 23.2587 26.1328 22.1341 26.1328 20.9502C26.1328 17.6108 24.1314 14.649 21.0341 13.4022C20.0686 13.014 19.0479 12.8176 18.0001 12.8176C13.9026 12.8176 10.4333 15.8794 9.92984 19.9399C9.88832 20.2729 9.86734 20.6131 9.86734 20.9497C9.86734 22.1336 10.124 23.2582 10.5805 24.2738H5.52311C5.149 24.2738 4.84477 23.9696 4.84477 23.5955L4.84454 5.84347C4.84454 5.46913 5.14878 5.16467 5.52289 5.16467H30.4772C30.8513 5.16467 31.1555 5.46891 31.1555 5.84347L31.1558 6.45695ZM21.1181 20.8112C21.383 20.8112 21.598 20.5963 21.598 20.3313C21.598 20.0664 21.383 19.8514 21.1181 19.8514H20.36V17.8965C20.36 17.6316 20.1451 17.4166 19.8801 17.4166C19.6151 17.4166 19.4002 17.6316 19.4002 17.8965V19.8514H17.927L16.525 17.6396C16.4112 17.459 16.1913 17.376 15.9857 17.4354C15.7806 17.495 15.6395 17.6827 15.6395 17.8961V19.851H14.8817C14.6167 19.851 14.4018 20.0659 14.4018 20.3309C14.4018 20.5958 14.6167 20.8108 14.8817 20.8108H15.6395V21.024H14.8817C14.6167 21.024 14.4018 21.2389 14.4018 21.5039C14.4018 21.7688 14.6167 21.9838 14.8817 21.9838H15.6395V24.0028C15.6395 24.2677 15.8545 24.4827 16.1194 24.4827C16.3844 24.4827 16.5993 24.2677 16.5993 24.0028V21.9838H18.1419L19.4741 24.0858C19.5879 24.2664 19.8078 24.3494 20.0133 24.29C20.2185 24.2304 20.3596 24.0427 20.3596 23.8293V21.9838H21.1176C21.3826 21.9838 21.5975 21.7688 21.5975 21.5039C21.5975 21.2389 21.3826 21.024 21.1176 21.024H20.3596V20.8108H21.118L21.1181 20.8112ZM16.5998 19.5503L16.7904 19.8512H16.5998V19.5503ZM16.5998 21.0242V20.811H17.3989L17.5341 21.0242H16.5998ZM19.4 22.1755L19.2788 21.9842H19.4V22.1755ZM19.4 21.0242H18.6703L18.5352 20.811H19.4L19.4 21.0242Z" fill="#00A7D7" stroke="#00A7D7" stroke-width="0.4"/>
</g>
<defs>
<clipPath id="clip0_1_865">
<rect width="36" height="32" fill="white"/>
</clipPath>
</defs>
</svg>
