<svg width="30" height="30" viewBox="0 0 30 30" fill="none" xmlns="http://www.w3.org/2000/svg">
<g clip-path="url(#clip0_1_606)">
<path d="M18.8428 15.5929L19.5564 14.2173C21.5694 10.3343 26.8095 12.0271 24.9948 16.1146C23.6379 19.1731 22.8586 25.278 19.5961 26.4289L12.8075 28.824C12.4314 28.9563 12.1714 28.8342 11.8736 28.649C10.0443 27.5139 6.56223 24.4677 5.8416 22.4244L2.42823 12.7501C1.84474 11.095 2.98336 9.56349 4.62823 9.43023C4.09675 7.78046 5.2912 6.28223 6.91594 6.18692C6.57844 3.62509 10.1789 2.37377 11.5173 4.56172C12.8791 3.59629 14.7715 4.0548 15.3646 5.73337L18.8429 15.5934L18.8428 15.5929ZM19.0441 4.99866C17.8479 5.10112 17.6932 3.28392 18.8872 3.18146C20.5348 3.0386 21.633 3.15847 23.2265 3.42409C24.4073 3.6203 24.1091 5.41672 22.9272 5.22009C21.5022 4.98192 20.5203 4.87054 19.0442 4.99866L19.0441 4.99866ZM21.455 10.1469C20.2702 9.98327 20.5178 8.17992 21.7048 8.34334C23.7908 8.63464 25.7664 9.42506 27.3912 10.7804C28.3084 11.5435 27.147 12.9404 26.2289 12.1772C24.872 11.0455 23.1959 10.3895 21.4551 10.1469H21.455ZM19.7796 7.65472C18.5834 7.68686 18.5354 5.86969 19.7296 5.83752C21.7555 5.77479 22.7713 6.12055 24.6146 6.56654C25.7765 6.8469 25.3506 8.615 24.1872 8.33397C22.5506 7.93599 21.5827 7.59917 19.7794 7.65472H19.7796ZM15.4814 15.6181C15.6488 16.0925 15.3997 16.613 14.9254 16.78C14.451 16.9469 13.9305 16.6983 13.7635 16.2239L10.6492 7.39652L10.0535 5.70857C9.75258 4.85543 8.47959 5.3242 8.77445 6.15991L9.37022 7.84831L12.5231 16.7855C12.6901 17.2598 12.4414 17.7803 11.9671 17.9473C11.4928 18.1142 10.9722 17.8656 10.8053 17.391L7.65191 8.45446C7.35414 7.60937 6.07402 8.05714 6.37288 8.9058C7.42088 11.8757 8.46865 14.8458 9.51642 17.8155C9.68339 18.2898 9.43472 18.8104 8.96017 18.9773C8.48584 19.1448 7.96577 18.8956 7.79834 18.4213C7.00571 16.1747 6.22445 13.9206 5.41977 11.679C5.11285 10.8487 3.85126 11.3087 4.14611 12.1451L7.55908 21.8188C8.10864 23.3764 11.2211 26.0407 12.6162 26.9601L18.9899 24.7113C21.077 23.9753 22.3027 17.7056 23.3341 15.381C24.2314 13.3571 22.0196 13.4209 21.1741 15.0517L19.5051 18.2696C19.1611 18.993 18.0957 18.9526 17.8238 18.1812L13.6459 6.33946C13.3462 5.49169 12.071 5.95084 12.3669 6.7908L15.4814 15.6181Z" fill="#00A7D7"/>
</g>
<defs>
<clipPath id="clip0_1_606">
<rect width="30" height="30" fill="white"/>
</clipPath>
</defs>
</svg>
