<svg width="30" height="30" viewBox="0 0 30 30" fill="none" xmlns="http://www.w3.org/2000/svg">
<path d="M26.25 20.625C26.25 21.1 25.9875 21.5125 25.5875 21.725L15.7125 27.275C15.5125 27.425 15.2625 27.5 15 27.5C14.7375 27.5 14.4875 27.425 14.2875 27.275L4.4125 21.725C4.2121 21.6197 4.04439 21.4615 3.9276 21.2675C3.8108 21.0736 3.74938 20.8514 3.75 20.625V9.375C3.75 8.9 4.0125 8.4875 4.4125 8.275L14.2875 2.725C14.4875 2.575 14.7375 2.5 15 2.5C15.2625 2.5 15.5125 2.575 15.7125 2.725L25.5875 8.275C25.9875 8.4875 26.25 8.9 26.25 9.375V20.625ZM6.25 11.25V18.75H7.8125V16.25H8.75C9.41305 16.25 10.0489 15.9866 10.5178 15.5178C10.9866 15.0489 11.25 14.413 11.25 13.75C11.25 13.087 10.9866 12.4511 10.5178 11.9822C10.0489 11.5134 9.41305 11.25 8.75 11.25H6.25ZM7.8125 15V12.5H8.4375C8.76903 12.5 9.08697 12.6317 9.32139 12.8661C9.55581 13.1005 9.6875 13.4185 9.6875 13.75C9.6875 14.0815 9.55581 14.3995 9.32139 14.6339C9.08697 14.8683 8.76903 15 8.4375 15H7.8125ZM12.1875 11.25V18.75H13.75V16.25H14.6875L15.5125 18.75H17.1625L16.175 15.7625C16.7875 15.3125 17.1875 14.575 17.1875 13.75C17.1875 13.087 16.9241 12.4511 16.4553 11.9822C15.9864 11.5134 15.3505 11.25 14.6875 11.25H12.1875ZM13.75 15V12.5H14.375C14.7065 12.5 15.0245 12.6317 15.2589 12.8661C15.4933 13.1005 15.625 13.4185 15.625 13.75C15.625 14.0815 15.4933 14.3995 15.2589 14.6339C15.0245 14.8683 14.7065 15 14.375 15H13.75ZM21.25 11.25C19.525 11.25 18.125 12.925 18.125 15C18.125 17.075 19.525 18.75 21.25 18.75C22.975 18.75 24.375 17.075 24.375 15C24.375 12.925 22.975 11.25 21.25 11.25ZM21.25 12.8125C22.2 12.8125 22.975 13.7875 22.975 15C22.975 16.2125 22.2 17.1875 21.25 17.1875C20.3 17.1875 19.5375 16.2125 19.5375 15C19.5375 13.7875 20.3 12.8125 21.25 12.8125Z" fill="#00A7D7"/>
</svg>
