<svg width="43" height="43" viewBox="0 0 43 43" fill="none" xmlns="http://www.w3.org/2000/svg">
<path d="M7.39441 14.4316C6.89858 14.4316 6.48324 14.2642 6.14841 13.9294C5.81241 13.5934 5.64441 13.1775 5.64441 12.6816C5.64441 12.1858 5.81241 11.7699 6.14841 11.4339C6.48324 11.0991 6.89858 10.9316 7.39441 10.9316H24.8944C25.3902 10.9316 25.8062 11.0991 26.1422 11.4339C26.477 11.7699 26.6444 12.1858 26.6444 12.6816C26.6444 13.1775 26.477 13.5934 26.1422 13.9294C25.8062 14.2642 25.3902 14.4316 24.8944 14.4316H7.39441ZM7.39441 21.4316C6.89858 21.4316 6.48324 21.2636 6.14841 20.9276C5.81241 20.5928 5.64441 20.1775 5.64441 19.6816C5.64441 19.1858 5.81241 18.7699 6.14841 18.4339C6.48324 18.0991 6.89858 17.9316 7.39441 17.9316H24.8944C25.3902 17.9316 25.8062 18.0991 26.1422 18.4339C26.477 18.7699 26.6444 19.1858 26.6444 19.6816C26.6444 20.1775 26.477 20.5928 26.1422 20.9276C25.8062 21.2636 25.3902 21.4316 24.8944 21.4316H7.39441ZM7.39441 28.4316C6.89858 28.4316 6.48324 28.2636 6.14841 27.9276C5.81241 27.5928 5.64441 27.1775 5.64441 26.6816C5.64441 26.1858 5.81241 25.7699 6.14841 25.4339C6.48324 25.0991 6.89858 24.9316 7.39441 24.9316H17.8944C18.3902 24.9316 18.8062 25.0991 19.1422 25.4339C19.477 25.7699 19.6444 26.1858 19.6444 26.6816C19.6444 27.1775 19.477 27.5928 19.1422 27.9276C18.8062 28.2636 18.3902 28.4316 17.8944 28.4316H7.39441ZM27.7819 32.4566L24.0194 28.6941C23.6986 28.3733 23.5382 27.965 23.5382 27.4691C23.5382 26.9733 23.6986 26.565 24.0194 26.2441C24.3402 25.9233 24.7416 25.7629 25.2234 25.7629C25.7041 25.7629 26.1194 25.9233 26.4694 26.2441L29.0069 28.6941L35.2194 22.4816C35.5402 22.1608 35.941 22.0004 36.4217 22.0004C36.9035 22.0004 37.3194 22.1754 37.6694 22.5254C38.0194 22.8754 38.1874 23.2983 38.1734 23.7941C38.1582 24.29 37.9757 24.7129 37.6257 25.0629L30.2319 32.4566C29.9111 32.7775 29.5027 32.9379 29.0069 32.9379C28.5111 32.9379 28.1027 32.7775 27.7819 32.4566Z" fill="#00A7D7"/>
</svg>
